# xmcd
#
# Track frame offsets: 
#        150
#        15416
#        33018
#        63773
#        103287
#        125258
#        144896
#        168957
#        197005
#        228549
#
# Disc length: 3853 seconds
#
# Revision: 0
# Processed by: cddbd v1.5.2PL0 Copyright (c) Steve Scherf et al.
# Submitted via: ExactAudioCopy v0.99pb5
#
DISCID=750f0b0a
DTITLE=Alligator Nail - A Night At JazzonLive
DYEAR=2010
DGENRE=Blues
TTITLE0=I Just Can't Get New Orleans Off My Mind
TTITLE1=Junko Partner
TTITLE2=300 Pounds Of Joy
TTITLE3=Zydeco Boogaloo - Iko Iko
TTITLE4=Mardi Gras in New Orleans
TTITLE5=I Don't Need No Doctor
TTITLE6=Nobody Knows You When You're Down And Out
TTITLE7=Worried Wife Blues
TTITLE8=See You Later Alligator
TTITLE9=Can't Be Satisfied
EXTD=
EXTT0=
EXTT1=
EXTT2=
EXTT3=
EXTT4=
EXTT5=
EXTT6=
EXTT7=
EXTT8=
EXTT9=
PLAYORDER=
